# AST/ASF file generated using VICON BodyLanguage
# -----------------------------------------------
:version 1.10
:name VICON
:units
  mass 1.0
  length 0.45
  angle deg
:documentation
   .ast/.asf automatically generated from VICON data using
   VICON BodyBuilder and BodyLanguage model FoxedUp or BRILLIANT.MOD
:root
   order TX TY TZ RX RY RZ
   axis XYZ
   position 0 0 0  
   orientation 0 0 0 
:bonedata
  begin
     id 1 
     name lhipjoint
     direction 0.602128 -0.715006 0.355257 
     length 2.21237 
     axis 0 0 0  XYZ
  end
  begin
     id 2 
     name lfemur
     direction 0.34202 -0.939693 0  
     length 6.71649  
     axis 0 0 20  XYZ
    dof rx ry rz
    limits (-160.0 20.0)
           (-70.0 70.0)
           (-60.0 70.0)
  end
  begin
     id 3 
     name ltibia
     direction 0.34202 -0.939693 0   
     length 6.97123   
     axis 0 0 20   XYZ
    dof rx
    limits (-10.0 170.0)
  end
  begin
     id 4 
     name lfoot
     direction 0.0655697 -0.180151 0.981451   
     length 1.80924   
     axis -90 7.62852e-016 20   XYZ
    dof rx rz
    limits (-45.0 90.0)
           (-70.0 20.0)
  end
  begin
     id 5 
     name ltoes
     direction 1.53545e-011 -4.21827e-011 1   
     length 0.916331   
     axis -90 7.62852e-016 20   XYZ
    dof rx
    limits (-90.0 20.0)
  end
  begin
     id 6 
     name rhipjoint
     direction -0.625414 -0.698792 0.347201   
     length 2.2637  
     axis 0 0 0  XYZ 
  end
  begin
     id 7 
     name rfemur
     direction -0.34202 -0.939693 0   
     length 7.07595   
     axis 0 0 -20   XYZ
    dof rx ry rz
    limits (-160.0 20.0)
           (-70.0 70.0)
           (-70.0 60.0)
  end
  begin
     id 8 
     name rtibia
     direction -0.34202 -0.939693 0   
     length 7.22924   
     axis 0 0 -20   XYZ
    dof rx
    limits (-10.0 170.0)
 end
 begin
     id 9 
     name rfoot
     direction -0.0766747 -0.210662 0.974547   
     length 1.98482  
     axis -90 -7.62852e-016 -20   XYZ
    dof rx rz
    limits (-45.0 90.0)
           (-20.0 70.0)
  end
  begin
     id 10 
     name rtoes
     direction -1.53532e-011 -4.21867e-011 1   
     length 0.999842   
     axis -90 -7.62852e-016 -20   XYZ
    dof rx
    limits (-90.0 20.0)
  end
  begin
     id 11 
     name lowerback
     direction -0.0224668 0.997354 -0.0691422   
     length 2.09945   
     axis 0 0 0   XYZ
    dof rx ry rz
    limits (-20.0 45.0)
           (-30.0 30.0)
           (-30.0 30.0)
  end
  begin
     id 12 
     name upperback
     direction 0.0134698 0.998451 -0.0539888   
     length 2.09758   
     axis 0 0 0   XYZ
    dof rx ry rz
    limits (-20.0 45.0)
           (-30.0 30.0)
           (-30.0 30.0)
  end
  begin
     id 13 
     name thorax
     direction 0.0241905 0.99948 -0.0213333   
     length 2.10428   
     axis 0 0 0   XYZ
    dof rx ry rz
    limits (-20.0 45.0)
           (-30.0 30.0)
           (-30.0 30.0)
  end
  begin
     id 14 
     name lowerneck
     direction -0.00866847 0.995978 0.0891737   
     length 1.3959   
     axis 0 0 0   XYZ
    dof rx ry rz
    limits (-20.0 45.0)
           (-30.0 30.0)
           (-30.0 30.0)
  end
  begin
     id 15 
     name upperneck
     direction 0.0680679 0.992203 0.104404   
     length 1.39452   
     axis 0 0 0   XYZ
    dof rx ry rz
    limits (-20.0 45.0)
           (-30.0 30.0)
           (-30.0 30.0)
  end
  begin
     id 16
     name head
     direction 0.0242216 0.999358 0.0264054  
     length 1.40433  
     axis 0 0 0   XYZ
    dof rx ry rz
    limits (-20.0 45.0)
           (-30.0 30.0)
           (-30.0 30.0)
  end
  begin
     id 17 
     name lclavicle
     direction 0.929368 0.362991 -0.0671771  
     length 3.04887  
     axis 0 0 0   XYZ
    dof ry rz
    limits (-20.0 10.0)
           (0.0 20.0)
  end
  begin
     id 18 
     name lhumerus
     direction 1 -4.48967e-011 -7.13741e-028   
     length 4.77195   
     axis -180 -30 -90   XYZ
    dof rx ry rz
    limits (-60.0 90.0)
           (-90.0 90.0)
           (-90.0 90.0)
  end
  begin
     id 19
     name lradius
     direction 1 -4.48977e-011 3.60404e-027   
     length 2.98444   
     axis -180 -30 -90   XYZ
    dof rx
    limits (-10.0 170.0)
  end
  begin
     id 20
     name lwrist
     direction 1 -4.48997e-011 7.54877e-027   
     length 1.49222   
     axis -7.18178e-015 90 90   XYZ
    dof ry
    limits (-180.0 0.0)
 end
  begin
     id 21 
     name lhand
     direction 1 -4.489e-011 1.51105e-026   
     length 0.992285   
     axis -9.63605e-015 90 90   XYZ
    dof rx rz
    limits (-90.0 90.0)
           (-45.0 45.0)
  end
  begin
     id 22 
     name lfingers
     direction 1 -4.48998e-011 3.01948e-026   
     length 0.800006   
     axis -1.92718e-014 90 90   XYZ
    dof rx
    limits (0.0 90.0)
  end
  begin
     id 23
     name lthumb
     direction 0.707107 -6.34881e-011 0.707107   
     length 1.14865   
     axis -90 45 -3.53137e-014   XYZ
    dof rx rz
    limits (-45.0 45.0)
           (-45.0 45.0)
  end
  begin
     id 24 
     name rclavicle
     direction -0.945672 0.324529 0.0196374   
     length 3.4236  
     axis 0 0 0   XYZ 
    dof ry rz
    limits (-10.0 20.0)
           (-20.0 0.0)
  end
  begin
     id 25 
     name rhumerus
     direction -1 -4.4896e-011 1.02757e-029  
     length 4.62052   
     axis -180 30 90   XYZ
    dof rx ry rz
    limits (-90.0 60.0)
           (-90.0 90.0)
           (-90.0 90.0)
  end
  begin
     id 26 
     name rradius
     direction -1 -4.48982e-011 3.85962e-027   
     length 2.95332   
     axis -180 30 90   XYZ
    dof rx
    limits (-10.0 170.0)
  end
  begin
     id 27 
     name rwrist
     direction -1 -4.48961e-011 7.55118e-027   
     length 1.47666   
     axis -7.18178e-015 -90 -90   XYZ
    dof ry
    limits (-180.0 0.0)
  end
  begin
     id 28
     name rhand
     direction -1 -4.48984e-011 1.50994e-026   
     length 0.990956   
     axis -9.63605e-015 -90 -90   XYZ
    dof rx rz
    limits (-90.0 90.0)
           (-45.0 45.0)
  end
  begin
     id 29
     name rfingers
     direction -1 -4.4892e-011 3.02158e-026   
     length 0.798934   
     axis -1.92718e-014 -90 -90   XYZ
    dof rx
    limits (0.0 90.0)
  end
  begin
     id 30
     name rthumb
     direction -0.707107 -6.34916e-011 0.707107   
     length 1.14711   
     axis -90 -45 3.53137e-014   XYZ
    dof rx rz
    limits (-45.0 45.0)
           (-45.0 45.0)
  end
:hierarchy
  begin
    root lhipjoint rhipjoint lowerback
    lhipjoint lfemur
    lfemur ltibia
    ltibia lfoot
    lfoot ltoes
    rhipjoint rfemur
    rfemur rtibia
    rtibia rfoot
    rfoot rtoes
    lowerback upperback
    upperback thorax
    thorax lowerneck lclavicle rclavicle
    lowerneck upperneck
    upperneck head
    lclavicle lhumerus
    lhumerus lradius
    lradius lwrist
    lwrist lhand lthumb
    lhand lfingers
    rclavicle rhumerus
    rhumerus rradius
    rradius rwrist
    rwrist rhand rthumb
    rhand rfingers
  end

#!OML:ASF H:\ManfredObstacles\Project 1\Capture day 1\Session 1\Male.ASF
:FULLY-SPECIFIED
:DEGREES
145
root -12.9286 16.4314 11.98 -170.884 51.7306 -182.739
lowerback -8.68553 -5.32382 -6.44049
upperback 2.53325 -6.47602 1.40531
thorax 8.47001 -3.52193 4.02447
lowerneck -0.361779 -4.42757 -5.53093
upperneck -3.77166 -5.43797 13.4326
head -0.49896 -2.72559 4.92852
rclavicle 1.16587e-013 -1.27222e-014
rhumerus -46.3488 -27.3389 -66.5175
rradius 24.7727
rwrist 36.6421
rhand -0.613609 -4.85434
rfingers 7.12502
rthumb 25.0025 -33.2382
lclavicle 1.16587e-013 -1.27222e-014
lhumerus -19.2335 2.3372 83.3677
lradius 23.4125
lwrist -21.6444
lhand -9.30271 9.20518
lfingers 7.12502
lthumb 16.655 38.5106
rfemur -40.2552 -12.933 26.5543
rtibia 24.438
rfoot -16.6614 3.28408
rtoes 14.3934
lfemur 1.73966 2.21113 -21.5158
ltibia 2.75853
lfoot -6.83302 -6.7171
ltoes -10.0491
146
root -12.7455 16.4043 11.8551 -171.578 52.1771 -183.342
lowerback -8.75046 -5.3291 -6.6041
upperback 2.57026 -6.44726 1.27327
thorax 8.54789 -3.51362 3.97217
lowerneck -0.445141 -4.40129 -5.4134
upperneck -3.67911 -5.41735 13.2234
head -0.470524 -2.71144 4.84209
rclavicle -1.76421e-015 5.1684e-015
rhumerus -47.1058 -27.6929 -65.7477
rradius 24.0934
rwrist 37.1138
rhand -0.418162 -5.10914
rfingers 7.12502
rthumb 25.1898 -33.4668
lclavicle -1.76421e-015 5.1684e-015
lhumerus -19.0341 2.42752 83.4857
lradius 23.4705
lwrist -21.6627
lhand -9.64808 9.39212
lfingers 7.12502
lthumb 16.3225 38.7252
rfemur -39.5066 -12.5934 25.9836
rtibia 24.3382
rfoot -16.1046 3.67057
rtoes 14.2392
lfemur 4.31856 1.64418 -21.9258
ltibia -3.18055e-015
lfoot -5.86669 -5.60537
ltoes -10.3836
147
root -12.55 16.3792 11.7263 -172.196 52.6854 -183.854
lowerback -8.9664 -5.31219 -6.63172
upperback 2.60709 -6.39447 1.14578
thorax 8.69371 -3.48765 3.84148
lowerneck -0.341142 -4.36409 -5.5841
upperneck -3.69548 -5.37284 13.2377
head -0.491469 -2.69294 4.87814
rclavicle -7.25564e-015 -3.00165e-014
rhumerus -48.1121 -28.9686 -64.1819
rradius 23.2375
rwrist 38.773
rhand -0.143144 -4.96547
rfingers 7.12502
rthumb 25.4533 -33.2859
lclavicle -7.25564e-015 -3.00165e-014
lhumerus -19.0007 2.97644 83.5786
lradius 23.525
lwrist -21.8674
lhand -9.93757 9.48
lfingers 7.12502
lthumb 16.0438 38.8357
rfemur -38.6406 -12.3717 25.5963
rtibia 24.7357
rfoot -14.8346 4.15905
rtoes 13.4434
lfemur 5.54698 1.15505 -22.256
ltibia 2.22639e-014
lfoot -6.06822 -4.83157
ltoes -11.5126
148
root -12.3596 16.361 11.6209 -172.023 53.0936 -183.642
lowerback -9.05081 -5.32994 -6.37394
upperback 2.49379 -6.45469 1.23785
thorax 8.60603 -3.50233 3.78448
lowerneck -0.186842 -4.34678 -6.07524
upperneck -3.82005 -5.34202 13.5221
head -0.532944 -2.68339 5.0526
rclavicle 7.01586e-014 -4.37326e-015
rhumerus -49.1281 -30.23 -62.4975
rradius 22.458
rwrist 40.6321
rhand 0.182599 -4.94079
rfingers 7.12502
rthumb 25.7653 -33.2163
lclavicle 7.01586e-014 -4.37326e-015
lhumerus -19.2218 3.83037 83.6814
lradius 23.6792
lwrist -22.0242
lhand -10.0699 9.35471
lfingers 7.12502
lthumb 15.9163 38.7207
rfemur -37.9259 -11.4264 25.5886
rtibia 25.2776
rfoot -12.6777 3.36666
rtoes 13.8668
lfemur 6.42527 0.619356 -22.0299
ltibia 6.36111e-015
lfoot -5.92178 -3.92331
ltoes -13.7625
149
root -12.1594 16.3754 11.5101 -172.336 53.5277 -183.819
lowerback -9.09466 -5.4217 -6.42531
upperback 2.49061 -6.57682 1.33217
thorax 8.66224 -3.56863 3.88569
lowerneck -0.0848413 -4.15287 -5.8177
upperneck -4.12189 -5.07095 12.9883
head -0.688449 -2.56003 4.85762
rclavicle 1.19886e-013 -6.33626e-015
rhumerus -49.6822 -30.6408 -61.4918
rradius 21.9405
rwrist 41.5643
rhand 0.331396 -5.07345
rfingers 7.12502
rthumb 25.9078 -33.3282
lclavicle 1.19886e-013 -6.33626e-015
lhumerus -19.4513 4.8526 83.908
lradius 23.7908
lwrist -21.9943
lhand -10.1847 9.29615
lfingers 7.12502
lthumb 15.8058 38.6709
rfemur -37.3758 -10.4623 25.1477
rtibia 25.8345
rfoot -11.6363 2.99791
rtoes 19.3249
lfemur 7.51798 0.0831725 -22.0736
ltibia 2.22639e-014
lfoot -5.49209 -3.165
ltoes -15.8705
150
root -11.9578 16.3836 11.406 -171.81 54.0759 -183.012
lowerback -9.1826 -5.42241 -5.8696
upperback 2.49648 -6.65817 1.53965
thorax 8.6863 -3.58718 3.77661
lowerneck -0.157802 -3.99552 -5.83417
upperneck -4.10406 -4.87299 12.6977
head -0.698481 -2.45818 4.7719
rclavicle 9.08042e-015 -1.35546e-014
rhumerus -50.1291 -31.0682 -60.5671
rradius 21.4165
rwrist 42.3885
rhand 0.238912 -5.0782
rfingers 7.12502
rthumb 25.8192 -33.3459
lclavicle 9.08042e-015 -1.35546e-014
lhumerus -19.7422 5.8679 84.1172
lradius 23.8502
lwrist -21.9353
lhand -10.4063 9.42718
lfingers 7.12502
lthumb 15.5924 38.8187
rfemur -36.7316 -9.30164 25.3955
rtibia 26.2706
rfoot -10.8351 2.60666
rtoes 22.6163
lfemur 8.53875 -0.26652 -21.4702
ltibia 1.27222e-014
lfoot -4.70789 -2.47563
ltoes -17.7961
151
root -11.7521 16.3904 11.2992 -171.538 54.7456 -182.49
lowerback -9.28259 -5.37859 -5.41609
upperback 2.48527 -6.65823 1.64172
thorax 8.68768 -3.56648 3.62721
lowerneck -0.27013 -3.88529 -6.13833
upperneck -3.94548 -4.74139 12.7501
head -0.636888 -2.38378 4.8348
rclavicle -5.33675e-014 -1.29707e-014
rhumerus -50.7808 -32.3567 -58.9477
rradius 20.6602
rwrist 44.1668
rhand 0.0871096 -5.04506
rfingers 7.12502
rthumb 25.6738 -33.3338
lclavicle -5.33675e-014 -1.29707e-014
lhumerus -20.1929 7.00957 84.2502
lradius 23.8655
lwrist -22.204
lhand -10.5734 9.3832
lfingers 7.12502
lthumb 15.4314 38.7872
rfemur -35.9143 -8.33654 25.5257
rtibia 26.6392
rfoot -10.5166 2.60833
rtoes 23.9501
lfemur 7.111 -0.511334 -21.0809
ltibia 4.90622
lfoot -5.84724 -2.31554
ltoes -19.2246
152
root -11.5473 16.4044 11.1968 -171.274 55.4101 -182.11
lowerback -9.41532 -5.36214 -5.14462
upperback 2.42595 -6.67438 1.77487
thorax 8.68475 -3.56283 3.60747
lowerneck -0.315641 -3.73008 -6.41723
upperneck -3.83974 -4.54327 12.8275
head -0.608753 -2.27976 4.90446
rclavicle -5.84178e-014 2.38045e-014
rhumerus -51.3256 -33.6265 -57.3917
rradius 20.0262
rwrist 45.7711
rhand 0.0192257 -5.13902
rfingers 7.12502
rthumb 25.6088 -33.4371
lclavicle -5.84178e-014 2.38045e-014
lhumerus -20.679 8.1653 84.4103
lradius 23.7627
lwrist -22.5659
lhand -10.6216 9.10062
lfingers 7.12502
lthumb 15.385 38.5082
rfemur -35.1873 -7.67992 25.677
rtibia 26.9832
rfoot -10.4998 2.87322
rtoes 25.0233
lfemur 5.16527 -0.770277 -20.8399
ltibia 10.5518
lfoot -6.83775 -2.02086
ltoes -19.9362
153
root -11.3404 16.4286 11.0936 -170.17 56.0629 -180.979
lowerback -9.81243 -5.28753 -4.3649
upperback 2.32697 -6.6696 1.9608
thorax 8.7323 -3.52249 3.34678
lowerneck -0.270338 -3.5767 -6.43551
upperneck -3.74761 -4.35 12.7664
head -0.609851 -2.18335 4.89041
rclavicle 7.33267e-014 1.17283e-014
rhumerus -51.7052 -34.3612 -56.4824
rradius 19.7603
rwrist 46.521
rhand 0.18084 -5.1677
rfingers 7.12502
rthumb 25.7636 -33.4435
lclavicle 7.33267e-014 1.17283e-014
lhumerus -21.25 8.9374 84.5465
lradius 23.7051
lwrist -22.7057
lhand -10.5398 8.89537
lfingers 7.12502
lthumb 15.4638 38.2969
rfemur -34.6246 -7.68217 26.5588
rtibia 27.1745
rfoot -10.6877 3.8342
rtoes 26.1101
lfemur 3.14266 -1.60254 -20.208
ltibia 15.857
lfoot -7.23092 -1.20855
ltoes -18.1647
154
root -11.1345 16.4496 10.9948 -171.337 56.8958 -182.102
lowerback -9.75681 -5.23983 -4.88621
upperback 2.29014 -6.52239 1.71639
thorax 8.6771 -3.46922 3.41002
lowerneck -0.113597 -3.4829 -6.24782
upperneck -3.76646 -4.22991 12.622
head -0.661344 -2.13054 4.81944
rclavicle 9.10682e-015 -3.19546e-014
rhumerus -51.8157 -34.4559 -56.4027
rradius 19.8726
rwrist 46.3257
rhand 0.579363 -5.19289
rfingers 7.12502
rthumb 26.1452 -33.4127
lclavicle 9.10682e-015 -3.19546e-014
lhumerus -22.0039 9.42523 84.6282
lradius 23.8295
lwrist -22.9401
lhand -10.3061 8.75659
lfingers 7.12502
lthumb 15.6889 38.1406
rfemur -33.6668 -8.24425 26.1418
rtibia 27.3112
rfoot -11.0178 5.30131
rtoes 26.923
lfemur 1.4651 -2.29086 -20.9866
ltibia 21.1411
lfoot -6.81101 -0.407427
ltoes -16.0885
155
root -10.9387 16.4665 10.9146 -170.83 57.8098 -181.386
lowerback -9.65108 -5.08665 -4.54984
upperback 2.21485 -6.37112 1.80302
thorax 8.4878 -3.37775 3.35809
lowerneck 0.0217725 -3.42971 -6.08305
upperneck -3.83654 -4.16178 12.4344
head -0.719403 -2.10365 4.73885
rclavicle -4.61429e-014 -2.48481e-016
rhumerus -51.427 -33.8772 -57.2463
rradius 20.2948
rwrist 45.1578
rhand 0.879745 -5.42949
rfingers 7.12502
rthumb 26.4327 -33.6064
lclavicle -4.61429e-014 -2.48481e-016
lhumerus -22.8273 9.68284 84.7769
lradius 24.0975
lwrist -23.0576
lhand -10.0673 8.64577
lfingers 7.12502
lthumb 15.9188 38.0115
rfemur -32.8282 -8.26745 26.8189
rtibia 27.3417
rfoot -11.3628 6.41665
rtoes 27.6092
lfemur -0.660945 -1.91252 -20.5311
ltibia 26.5027
lfoot -5.13972 0.361242
ltoes -18.6825
